<svg width="217" height="110" viewBox="0 0 217 110" fill="none" xmlns="http://www.w3.org/2000/svg">
<path d="M2.85 72V66.075L27.525 36.225L29.25 39.45H3.3V31.95H36.75V37.875L12.075 67.725L10.2 64.5H37.425V72H2.85ZM70.742 72V63.9L70.217 62.175V48C70.217 45.25 69.392 43.125 67.742 41.625C66.092 40.075 63.592 39.3 60.242 39.3C57.992 39.3 55.767 39.65 53.567 40.35C51.417 41.05 49.592 42.025 48.092 43.275L44.417 36.45C46.567 34.8 49.117 33.575 52.067 32.775C55.067 31.925 58.167 31.5 61.367 31.5C67.167 31.5 71.642 32.9 74.792 35.7C77.992 38.45 79.592 42.725 79.592 48.525V72H70.742ZM58.142 72.525C55.142 72.525 52.517 72.025 50.267 71.025C48.017 69.975 46.267 68.55 45.017 66.75C43.817 64.9 43.217 62.825 43.217 60.525C43.217 58.275 43.742 56.25 44.792 54.45C45.892 52.65 47.667 51.225 50.117 50.175C52.567 49.125 55.817 48.6 59.867 48.6H71.492V54.825H60.542C57.342 54.825 55.192 55.35 54.092 56.4C52.992 57.4 52.442 58.65 52.442 60.15C52.442 61.85 53.117 63.2 54.467 64.2C55.817 65.2 57.692 65.7 60.092 65.7C62.392 65.7 64.442 65.175 66.242 64.125C68.092 63.075 69.417 61.525 70.217 59.475L71.792 65.1C70.892 67.45 69.267 69.275 66.917 70.575C64.617 71.875 61.692 72.525 58.142 72.525ZM113.824 72.525C110.574 72.525 107.599 71.775 104.899 70.275C102.249 68.775 100.124 66.525 98.5236 63.525C96.9736 60.475 96.1986 56.625 96.1986 51.975C96.1986 47.275 96.9486 43.425 98.4486 40.425C99.9986 37.425 102.099 35.2 104.749 33.75C107.399 32.25 110.424 31.5 113.824 31.5C117.774 31.5 121.249 32.35 124.249 34.05C127.299 35.75 129.699 38.125 131.449 41.175C133.249 44.225 134.149 47.825 134.149 51.975C134.149 56.125 133.249 59.75 131.449 62.85C129.699 65.9 127.299 68.275 124.249 69.975C121.249 71.675 117.774 72.525 113.824 72.525ZM91.6236 86.55V31.95H100.549V41.4L100.249 52.05L100.999 62.7V86.55H91.6236ZM112.774 64.5C115.024 64.5 117.024 64 118.774 63C120.574 62 121.999 60.55 123.049 58.65C124.099 56.75 124.624 54.525 124.624 51.975C124.624 49.375 124.099 47.15 123.049 45.3C121.999 43.4 120.574 41.95 118.774 40.95C117.024 39.95 115.024 39.45 112.774 39.45C110.524 39.45 108.499 39.95 106.699 40.95C104.899 41.95 103.474 43.4 102.424 45.3C101.374 47.15 100.849 49.375 100.849 51.975C100.849 54.525 101.374 56.75 102.424 58.65C103.474 60.55 104.899 62 106.699 63C108.499 64 110.524 64.5 112.774 64.5ZM165.24 72.525C161.99 72.525 159.015 71.775 156.315 70.275C153.665 68.775 151.54 66.525 149.94 63.525C148.39 60.475 147.615 56.625 147.615 51.975C147.615 47.275 148.365 43.425 149.865 40.425C151.415 37.425 153.515 35.2 156.165 33.75C158.815 32.25 161.84 31.5 165.24 31.5C169.19 31.5 172.665 32.35 175.665 34.05C178.715 35.75 181.115 38.125 182.865 41.175C184.665 44.225 185.565 47.825 185.565 51.975C185.565 56.125 184.665 59.75 182.865 62.85C181.115 65.9 178.715 68.275 175.665 69.975C172.665 71.675 169.19 72.525 165.24 72.525ZM143.04 86.55V31.95H151.965V41.4L151.665 52.05L152.415 62.7V86.55H143.04ZM164.19 64.5C166.44 64.5 168.44 64 170.19 63C171.99 62 173.415 60.55 174.465 58.65C175.515 56.75 176.04 54.525 176.04 51.975C176.04 49.375 175.515 47.15 174.465 45.3C173.415 43.4 171.99 41.95 170.19 40.95C168.44 39.95 166.44 39.45 164.19 39.45C161.94 39.45 159.915 39.95 158.115 40.95C156.315 41.95 154.89 43.4 153.84 45.3C152.79 47.15 152.265 49.375 152.265 51.975C152.265 54.525 152.79 56.75 153.84 58.65C154.89 60.55 156.315 62 158.115 63C159.915 64 161.94 64.5 164.19 64.5Z" fill="#FFFFF2"/>
<path d="M196.796 72.525C195.096 72.525 193.646 71.95 192.446 70.8C191.246 69.6 190.646 68.1 190.646 66.3C190.646 64.4 191.246 62.9 192.446 61.8C193.646 60.65 195.096 60.075 196.796 60.075C198.496 60.075 199.946 60.65 201.146 61.8C202.346 62.9 202.946 64.4 202.946 66.3C202.946 68.1 202.346 69.6 201.146 70.8C199.946 71.95 198.496 72.525 196.796 72.525Z" fill="#DBF301"/>
</svg>
